<?xml version="1.0" encoding="UTF-8"?>
<svg xmlns="http://www.w3.org/2000/svg" xmlns:xlink="http://www.w3.org/1999/xlink" width="48px" height="48px" viewBox="0 0 48 48" version="1.1">
<g id="surface1">
<path style=" stroke:none;fill-rule:nonzero;fill:rgb(12.941177%,12.941177%,12.941177%);fill-opacity:1;" d="M 10.800781 7.199219 C 7.484375 7.199219 4.800781 9.886719 4.800781 13.199219 L 4.800781 34.800781 C 4.800781 38.113281 7.484375 40.800781 10.800781 40.800781 L 26.605469 40.800781 C 26.761719 40.351562 27.007812 39.945312 27.316406 39.601562 C 27.007812 39.253906 26.761719 38.847656 26.605469 38.398438 L 10.800781 38.398438 C 8.8125 38.398438 7.199219 36.789062 7.199219 34.800781 L 7.199219 19.199219 L 17.007812 19.199219 C 17.960938 19.199219 18.875 18.820312 19.550781 18.144531 L 23.296875 14.398438 L 37.199219 14.398438 C 39.1875 14.398438 40.800781 16.011719 40.800781 18 L 40.800781 28.800781 L 43.199219 28.800781 L 43.199219 18 C 43.199219 14.6875 40.515625 12 37.199219 12 L 23.296875 12 L 19.726562 8.429688 C 18.941406 7.640625 17.871094 7.199219 16.757812 7.199219 Z M 7.199219 13.199219 C 7.199219 11.210938 8.8125 9.601562 10.800781 9.601562 L 16.757812 9.601562 C 17.234375 9.601562 17.691406 9.789062 18.03125 10.128906 L 21.101562 13.199219 L 17.855469 16.449219 C 17.628906 16.671875 17.324219 16.800781 17.007812 16.800781 L 7.199219 16.800781 Z M 30 31.199219 C 29.335938 31.199219 28.800781 31.738281 28.800781 32.398438 C 28.800781 33.0625 29.335938 33.601562 30 33.601562 L 44.398438 33.601562 C 45.0625 33.601562 45.601562 33.0625 45.601562 32.398438 C 45.601562 31.738281 45.0625 31.199219 44.398438 31.199219 Z M 30 36 C 29.335938 36 28.800781 36.539062 28.800781 37.199219 C 28.800781 37.863281 29.335938 38.398438 30 38.398438 L 44.398438 38.398438 C 45.0625 38.398438 45.601562 37.863281 45.601562 37.199219 C 45.601562 36.539062 45.0625 36 44.398438 36 Z M 28.800781 42 C 28.800781 41.335938 29.335938 40.800781 30 40.800781 L 44.398438 40.800781 C 45.0625 40.800781 45.601562 41.335938 45.601562 42 C 45.601562 42.664062 45.0625 43.199219 44.398438 43.199219 L 30 43.199219 C 29.335938 43.199219 28.800781 42.664062 28.800781 42 Z M 28.800781 42 "/>
</g>
</svg>
