<?xml version="1.0" encoding="UTF-8"?>
<svg xmlns="http://www.w3.org/2000/svg" xmlns:xlink="http://www.w3.org/1999/xlink" width="48px" height="48px" viewBox="0 0 48 48" version="1.1">
<g id="surface1">
<path style=" stroke:none;fill-rule:nonzero;fill:rgb(12.941177%,12.941177%,12.941177%);fill-opacity:1;" d="M 9.863281 5.144531 C 6.3125 5.144531 3.433594 8.019531 3.433594 11.570312 L 3.433594 36 C 3.433594 36.027344 3.4375 36.054688 3.4375 36.078125 C 3.4375 36.132812 3.433594 36.183594 3.433594 36.234375 C 3.433594 38.945312 5.632812 41.144531 8.34375 41.144531 L 33.382812 41.144531 C 35.671875 41.144531 37.792969 39.921875 38.941406 37.941406 L 45.40625 26.796875 C 47.890625 22.511719 44.796875 17.144531 39.84375 17.144531 L 39.429688 17.144531 L 39.429688 16.714844 C 39.429688 13.164062 36.550781 10.285156 33 10.285156 L 23.425781 10.285156 C 23.3125 10.285156 23.203125 10.242188 23.121094 10.160156 L 19.484375 6.523438 C 18.601562 5.640625 17.402344 5.144531 16.152344 5.144531 Z M 36.859375 17.144531 L 16.097656 17.144531 C 13.621094 17.144531 11.367188 18.5625 10.296875 20.792969 L 6.007812 29.753906 L 6.007812 11.570312 C 6.007812 9.441406 7.734375 7.714844 9.863281 7.714844 L 16.152344 7.714844 C 16.71875 7.714844 17.265625 7.941406 17.667969 8.34375 L 21.304688 11.976562 C 21.867188 12.542969 22.628906 12.855469 23.425781 12.855469 L 33 12.855469 C 35.132812 12.855469 36.859375 14.585938 36.859375 16.714844 Z M 33.382812 38.570312 L 8.34375 38.570312 C 7.054688 38.570312 6.007812 37.523438 6.007812 36.234375 C 6.007812 35.886719 6.085938 35.539062 6.234375 35.226562 L 12.617188 21.90625 C 13.257812 20.566406 14.613281 19.714844 16.097656 19.714844 L 39.84375 19.714844 C 42.816406 19.714844 44.671875 22.933594 43.179688 25.507812 L 36.71875 36.648438 C 36.027344 37.839844 34.757812 38.570312 33.382812 38.570312 Z M 33.382812 38.570312 "/>
</g>
</svg>
